# xmcd CD database file
#
# Track frame offsets:
#	183
#	7550
#	28500
#	43403
#	60003
#	74630
#	91613
#	105713
#	126780
#	142878
#	159790
#	176265
#	192588
#
# Disc length: 2884 seconds
#
# Revision: 0
# Processed by: cddbd v1.5.2PL0 Copyright (c) Steve Scherf et al.
# Submitted via: CDex 1.51
#
DISCID=980b420d
DTITLE=Various Artist - International Singer-Songwriter Festival Frutigen, Switzerland 1987
DYEAR=1989
DGENRE=Country
TTITLE0=I'm Goin', I'm Leaving - Traver Hollow 
TTITLE1=Lonesome, On'ry And Mean - Steve Young/The Tom Russell Band 
TTITLE2=Mezcal - Tom Russell 
TTITLE3=Alkali - Tom Russell 
TTITLE4=Walking After Midnight - Katy Moffatt/The Tom Russell Band 
TTITLE5=First Taste Of Texas - Ed Bruce
TTITLE6=The Man Who Turned My Mama On - Ed Bruce
TTITLE7=Summer Wages - Ian Tyson/Andrew Hardin
TTITLE8=Someday Soon - Ian Tyson/Andrew Hardin
TTITLE9=Navajo Rug - Tom Russell
TTITLE10=Edge Of A Heartbreak - Dee Moeller
TTITLE11=Where Is The Magic - Dee Moeller
TTITLE12=Mamas Don't Let Your Babies Grow Up To Be Cowboys - Ed Bruce
EXTD=YEAR: 1989
EXTT0=
EXTT1=
EXTT2=
EXTT3=
EXTT4=
EXTT5=
EXTT6=
EXTT7=
EXTT8=
EXTT9=
EXTT10=
EXTT11=
EXTT12=
PLAYORDER=
